<?xml version="1.0" encoding="UTF-8"?>
<svg width="24px" height="24px" viewBox="0 0 24 24" version="1.1" xmlns="http://www.w3.org/2000/svg">
    <g stroke="none" stroke-width="1" fill="none" fill-rule="evenodd">
        <path d="M20,4 C21.1045695,4 22,4.8954305 22,6 L22,18 C22,19.1045695 21.1045695,20 20,20 L4,20 C2.8954305,20 2,19.1045695 2,18 L2,6 C2,4.8954305 2.8954305,4 4,4 L20,4 Z M20,6 L4,6 L4,18 L20,18 L20,6 Z M6.5,9 L17.5,9 C17.7761424,9 18,9.22385763 18,9.5 L18,14.5 C18,14.7761424 17.7761424,15 17.5,15 L6.5,15 C6.22385763,15 6,14.7761424 6,14.5 L6,9.5 C6,9.22385763 6.22385763,9 6.5,9 Z M7,10 L7,14 L17,14 L17,10 L7,10 Z" fill="#FFFFFF" fill-rule="nonzero"></path>
        <path d="M8,11 L10,11 L10,13 L8,13 L8,11 Z M11,11 L13,11 L13,13 L11,13 L11,11 Z M14,11 L16,11 L16,13 L14,13 L14,11 Z" fill="#FFFFFF" fill-rule="nonzero"></path>
    </g>
</svg>
