<?xml version="1.0" encoding="UTF-8"?>
<svg width="24px" height="24px" viewBox="0 0 24 24" version="1.1" xmlns="http://www.w3.org/2000/svg">
    <g stroke="none" stroke-width="1" fill="none" fill-rule="evenodd">
        <path d="M17,2 C17.5522847,2 18,2.44771525 18,3 L18,5 L20,5 C21.1045695,5 22,5.8954305 22,7 L22,9 C22,10.1045695 21.1045695,11 20,11 L18,11 L18,13 C18,13.5522847 17.5522847,14 17,14 L7,14 C6.44771525,14 6,13.5522847 6,13 L6,11 L4,11 C2.8954305,11 2,10.1045695 2,9 L2,7 C2,5.8954305 2.8954305,5 4,5 L6,5 L6,3 C6,2.44771525 6.44771525,2 7,2 L17,2 Z M16,4 L8,4 L8,12 L16,12 L16,4 Z M20,7 L18,7 L18,9 L20,9 L20,7 Z M6,7 L4,7 L4,9 L6,9 L6,7 Z" fill="#FFFFFF" fill-rule="nonzero"></path>
        <path d="M14.5,16 C14.7761424,16 15,16.2238576 15,16.5 L15,21.5 C15,21.7761424 14.7761424,22 14.5,22 L9.5,22 C9.22385763,22 9,21.7761424 9,21.5 L9,16.5 C9,16.2238576 9.22385763,16 9.5,16 L14.5,16 Z M14,17 L10,17 L10,21 L14,21 L14,17 Z" fill="#FFFFFF" fill-rule="nonzero"></path>
    </g>
</svg>
